<svg version="1.1" id="Layer_1" xmlns="http://www.w3.org/2000/svg" xmlns:xlink="http://www.w3.org/1999/xlink" x="0px" y="0px" width="323.081px" height="10.276px" viewBox="0 0 323.081 10.276" enable-background="new 0 0 323.081 10.276" xml:space="preserve">

<g>

	<defs>

		<rect id="SVGID_1_" width="323.081" height="10.276"></rect>

	</defs>

	<clipPath id="SVGID_2_">

		<use xlink:href="#SVGID_1_" overflow="visible"></use>

	</clipPath>

	<path clip-path="url(#SVGID_2_)" fill="#939598" d="M322.352,7.27c-0.505,0.337-1.943,1.364-4.204,1.364

		c-2.954,0-4.354-1.7-4.354-3.401c0-1.982,1.588-3.59,4.148-3.59c2.001,0,3.103,0.859,4.149,1.551l0.877-1.382

		C322.182,1.213,320.652,0,317.941,0c-3.25,0-5.791,2.11-5.791,5.119c0,3.104,2.484,5.157,6.016,5.157

		c2.896,0,4.522-1.232,4.915-1.492L322.352,7.27z M307.365,8.334h-5.902V0.299h-1.643v9.678h7.545V8.334z M294.076,8.334h-5.903

		V0.299h-1.643v9.678h7.546V8.334z M268.57,1.941h3.7V0.299h-9.078v1.642h3.737v8.036h1.641V1.941z M257.083,7.27

		c-0.501,0.337-1.943,1.364-4.201,1.364c-2.953,0-4.357-1.7-4.357-3.401c0-1.982,1.592-3.59,4.152-3.59

		c1.998,0,3.1,0.859,4.146,1.551l0.878-1.382C256.917,1.213,255.385,0,252.677,0c-3.253,0-5.791,2.11-5.791,5.119

		c0,3.104,2.483,5.157,6.015,5.157c2.897,0,4.521-1.232,4.913-1.492L257.083,7.27z M241.663,8.334h-7.065V5.81h3.778V4.167h-3.778

		V1.941h6.877V0.299h-8.519v9.678h8.707V8.334z M225.688,0.299h-1.642v5.344c0,1.159,0,2.991-2.821,2.991

		c-1.98,0-2.729-1.252-3.026-1.886l-1.365,0.915c0.411,0.896,1.553,2.614,4.373,2.614c3.4,0,4.481-1.884,4.481-4.633V0.299z

		 M211.588,5.137c0-2.783-2.203-5.137-5.924-5.137c-3.719,0-5.919,2.333-5.919,5.137c0,2.806,2.239,5.139,5.919,5.139

		C209.385,10.276,211.588,7.942,211.588,5.137 M205.664,8.633c-2.671,0-4.276-1.626-4.276-3.497c0-1.868,1.605-3.494,4.276-3.494

		s4.281,1.626,4.281,3.494C209.945,7.007,208.355,8.633,205.664,8.633 M186.022,4.373V1.941h4.414c1.252,0,1.961,0.093,1.961,1.177

		c0,0.956-0.784,1.255-1.867,1.255H186.022z M191.444,5.978c1.141-0.187,2.596-0.748,2.596-2.896c0-2.128-1.735-2.783-3.68-2.783

		h-5.98v9.678h1.643V6.015h3.403l2.785,3.962h2.053L191.444,5.978z M170.471,4.822V1.941h3.759c1.328,0,2.3,0,2.3,1.458

		c0,1.293-0.767,1.423-2.3,1.423H170.471z M170.471,6.464h3.759c2.354,0,3.941-0.636,3.941-3.066c0-2.892-2.408-3.1-3.941-3.1

		h-5.398v9.678h1.64V6.464z M146.313,4.373V1.941h4.409c1.253,0,1.966,0.093,1.966,1.177c0,0.956-0.787,1.255-1.872,1.255H146.313z

		 M151.732,5.978c1.141-0.187,2.599-0.748,2.599-2.896c0-2.128-1.736-2.783-3.682-2.783h-5.978v9.678h1.642V6.015h3.401l2.785,3.962

		h2.055L151.732,5.978z M138.44,8.334h-7.063V5.81h3.774V4.167h-3.774V1.941h6.877V0.299h-8.52v9.678h8.706V8.334z M124.073,0.299

		h-1.869L118.171,8l-3.999-7.701h-1.867l5.025,9.678h1.643L124.073,0.299z M106.647,0.299h-1.644v9.678h1.644V0.299z M90.378,4.373

		V1.941h4.41c1.255,0,1.965,0.093,1.965,1.177c0,0.956-0.785,1.255-1.869,1.255H90.378z M95.801,5.978

		c1.14-0.187,2.595-0.748,2.595-2.896c0-2.128-1.736-2.783-3.683-2.783h-5.977v9.678h1.642V6.015h3.401l2.786,3.962h2.054

		L95.801,5.978z M72.795,0.299h-1.642v7.174l-6.057-7.174h-1.643v9.678h1.643V2.785l6.057,7.192h1.642V0.299z M57.104,8.334H50.04

		V5.81h3.775V4.167H50.04V1.941h6.878V0.299h-8.519v9.678h8.705V8.334z M42.157,8.334h-7.062V5.81h3.774V4.167h-3.774V1.941h6.876

		V0.299h-8.519v9.678h8.705V8.334z M18.98,4.373V1.941h4.413c1.25,0,1.961,0.093,1.961,1.177c0,0.956-0.784,1.255-1.867,1.255H18.98

		z M24.401,5.978c1.14-0.187,2.596-0.748,2.596-2.896c0-2.128-1.736-2.783-3.68-2.783h-5.979v9.678h1.643V6.015h3.403l2.783,3.962

		h2.053L24.401,5.978z M10.687,4.578H6.261V6.22h2.784v1.48C8.091,8.259,6.951,8.633,5.831,8.633c-2.712,0-4.188-1.702-4.188-3.476

		c0-1.811,1.42-3.515,4.226-3.515c1.289,0,2.56,0.561,3.624,1.27l0.952-1.325C9.883,1.175,8.446,0,5.868,0C2.129,0,0,2.447,0,5.139

		c0,2.746,2.223,5.137,5.811,5.137c2.58,0,4.091-1.175,4.876-1.718V4.578z"></path>

</g>

</svg>