<svg xmlns="http://www.w3.org/2000/svg" width="100%" viewBox="0 0 323.081 10.276"><defs><path id="a" d="M0 0h323.081v10.276H0z"/></defs><clipPath id="b"><use xlink:href="#a" overflow="visible"/></clipPath><path clip-path="url(#b)" fill="#939598" d="M322.352 7.27c-.505.337-1.943 1.364-4.204 1.364-2.954 0-4.354-1.7-4.354-3.401 0-1.982 1.588-3.59 4.148-3.59 2.001 0 3.103.859 4.149 1.551l.877-1.382C322.182 1.213 320.652 0 317.941 0c-3.25 0-5.791 2.11-5.791 5.119 0 3.104 2.484 5.157 6.016 5.157 2.896 0 4.522-1.232 4.915-1.492l-.729-1.514zm-14.987 1.064h-5.902V.299h-1.643v9.678h7.545V8.334zm-13.289 0h-5.903V.299h-1.643v9.678h7.546V8.334zM268.57 1.941h3.7V.299h-9.078v1.642h3.737v8.036h1.641V1.941zM257.083 7.27c-.501.337-1.943 1.364-4.201 1.364-2.953 0-4.357-1.7-4.357-3.401 0-1.982 1.592-3.59 4.152-3.59 1.998 0 3.1.859 4.146 1.551l.878-1.382C256.917 1.213 255.385 0 252.677 0c-3.253 0-5.791 2.11-5.791 5.119 0 3.104 2.483 5.157 6.015 5.157 2.897 0 4.521-1.232 4.913-1.492l-.731-1.514zm-15.42 1.064h-7.065V5.81h3.778V4.167h-3.778V1.941h6.877V.299h-8.519v9.678h8.707V8.334zM225.688.299h-1.642v5.344c0 1.159 0 2.991-2.821 2.991-1.98 0-2.729-1.252-3.026-1.886l-1.365.915c.411.896 1.553 2.614 4.373 2.614 3.4 0 4.481-1.884 4.481-4.633V.299zm-14.1 4.838c0-2.783-2.203-5.137-5.924-5.137-3.719 0-5.919 2.333-5.919 5.137 0 2.806 2.239 5.139 5.919 5.139 3.721 0 5.924-2.334 5.924-5.139m-5.924 3.496c-2.671 0-4.276-1.626-4.276-3.497 0-1.868 1.605-3.494 4.276-3.494s4.281 1.626 4.281 3.494c0 1.871-1.59 3.497-4.281 3.497m-19.642-4.26V1.941h4.414c1.252 0 1.961.093 1.961 1.177 0 .956-.784 1.255-1.867 1.255h-4.508zm5.422 1.605c1.141-.187 2.596-.748 2.596-2.896 0-2.128-1.735-2.783-3.68-2.783h-5.98v9.678h1.643V6.015h3.403l2.785 3.962h2.053l-2.82-3.999zm-20.973-1.156V1.941h3.759c1.328 0 2.3 0 2.3 1.458 0 1.293-.767 1.423-2.3 1.423h-3.759zm0 1.642h3.759c2.354 0 3.941-.636 3.941-3.066 0-2.892-2.408-3.1-3.941-3.1h-5.398v9.678h1.64V6.464zm-24.158-2.091V1.941h4.409c1.253 0 1.966.093 1.966 1.177 0 .956-.787 1.255-1.872 1.255h-4.503zm5.419 1.605c1.141-.187 2.599-.748 2.599-2.896 0-2.128-1.736-2.783-3.682-2.783h-5.978v9.678h1.642V6.015h3.401l2.785 3.962h2.055l-2.822-3.999zM138.44 8.334h-7.063V5.81h3.774V4.167h-3.774V1.941h6.877V.299h-8.52v9.678h8.706V8.334zM124.073.299h-1.869L118.171 8 114.172.299h-1.867l5.025 9.678h1.643l5.1-9.678zm-17.426 0h-1.644v9.678h1.644V.299zM90.378 4.373V1.941h4.41c1.255 0 1.965.093 1.965 1.177 0 .956-.785 1.255-1.869 1.255h-4.506zm5.423 1.605c1.14-.187 2.595-.748 2.595-2.896 0-2.128-1.736-2.783-3.683-2.783h-5.977v9.678h1.642V6.015h3.401l2.786 3.962h2.054l-2.818-3.999zM72.795.299h-1.642v7.174L65.096.299h-1.643v9.678h1.643V2.785l6.057 7.192h1.642V.299zM57.104 8.334H50.04V5.81h3.775V4.167H50.04V1.941h6.878V.299h-8.519v9.678h8.705V8.334zm-14.947 0h-7.062V5.81h3.774V4.167h-3.774V1.941h6.876V.299h-8.519v9.678h8.705V8.334zM18.98 4.373V1.941h4.413c1.25 0 1.961.093 1.961 1.177 0 .956-.784 1.255-1.867 1.255H18.98zm5.421 1.605c1.14-.187 2.596-.748 2.596-2.896 0-2.128-1.736-2.783-3.68-2.783h-5.979v9.678h1.643V6.015h3.403l2.783 3.962h2.053l-2.819-3.999zm-13.714-1.4H6.261V6.22h2.784V7.7c-.954.559-2.094.933-3.214.933-2.712 0-4.188-1.702-4.188-3.476 0-1.811 1.42-3.515 4.226-3.515 1.289 0 2.56.561 3.624 1.27l.952-1.325C9.883 1.175 8.446 0 5.868 0 2.129 0 0 2.447 0 5.139c0 2.746 2.223 5.137 5.811 5.137 2.58 0 4.091-1.175 4.876-1.718v-3.98z"/></svg>